# xmcd
#
# Track frame offsets:
#	150
#	16203
#	35800
#	62303
#	83541
#	113540
#	138604
#	154545
#	174188
#	200699
#	221954
#	251954
#
# Disc length: 3692 seconds
#
# Revision: 1
# Processed by: cddbd v1.5.1PL0 Copyright (c) Steve Scherf et al.
# Submitted via: CDex 1.50Beta5
#
DISCID=9f0e6a0c
DTITLE=BeF - BeF SONG COLLECTION
DYEAR=1900
DGENRE=Soundtrack
TTITLE0=All one's life
TTITLE1=One's Baby Be
TTITLE2=Alone Again
TTITLE3=Cafe La Sunset
TTITLE4=いつか、どこかで
TTITLE5=Exit Of Karma
TTITLE6=All one's life カラオケ
TTITLE7=One's Baby Be カラオケ
TTITLE8=Alone Again カラオケ
TTITLE9=Cafe La Sunset カラオケ
TTITLE10=いつか、どこかで カラオケ
TTITLE11=Exit Of Karma カラオケ
EXTD=
EXTT0=
EXTT1=
EXTT2=
EXTT3=
EXTT4=
EXTT5=
EXTT6=
EXTT7=
EXTT8=
EXTT9=
EXTT10=
EXTT11=
PLAYORDER=
